<svg width="500" height="500" viewBox="0 0 500 500" fill="none" xmlns="http://www.w3.org/2000/svg">
<path d="M390 170.4C386.9 170.4 384.4 178.2 384.4 187.8C384.4 197.4 386.9 205.2 390 205.2C393.1 205.2 395.6 197.4 395.6 187.8C395.6 178.2 393.1 170.4 390 170.4Z" fill="#4380FF"/>
<path d="M321.4 187.8L415.9 173.2" stroke="#FC974C" stroke-width="14.3806" stroke-miterlimit="10" stroke-linecap="round" stroke-linejoin="round"/>
<path d="M384.5 187.8C384.5 178.2 387 170.4 390.1 170.4L321.5 180.5L325.5 193.3C325.5 193.3 345.8 197.6 361.5 202.8C377.2 208 390.2 205.3 390.2 205.3C387 205.2 384.5 197.4 384.5 187.8Z" fill="#CCDEFF"/>
<path d="M410 157.6C404.6 166.8 405 183 412.7 187.6C420.4 192.2 430.8 191.3 436.2 182.1C441.6 172.9 446.1 151.5 437.2 152.3C427 153.1 415.5 148.4 410 157.6Z" fill="#FC974C"/>
<path d="M438.7 178.1V144.6H428.7H418.7V178.1L394.4 211.8C392.7 214.1 394 217.4 396.9 218C401.9 218.9 411.3 219.9 428.8 219.9C446.3 219.9 455.7 219 460.7 218C463.5 217.5 464.8 214.2 463.2 211.8L438.7 178.1Z" fill="#CCDEFF"/>
<path d="M417.5 145.7H440C441.7 145.7 443.1 144.3 443.1 142.6C443.1 140.9 441.7 139.5 440 139.5H417.5C415.8 139.5 414.4 140.9 414.4 142.6C414.4 144.3 415.8 145.7 417.5 145.7Z" fill="#CCDEFF"/>
<path d="M453.4 206.4L444.9 194.7C444 193.4 442.5 192.6 440.9 192.6C433.8 192.6 428 197.7 428 203.9C428 209.7 433 214.4 439.3 215.1C440.8 215.1 442.2 215 443.4 215C448.4 214.1 452.3 210.7 453.4 206.4Z" fill="#B23FA7"/>
<path d="M403.9 214C407.8 214.7 415.1 215.4 428.7 215.4C442.3 215.4 449.6 214.7 453.5 214C455.7 213.6 456.7 211 455.4 209.2L448.4 199.5C435.7 209.2 428.4 191.5 421 191.5C420.7 191.5 420.3 191.5 420 191.5C416.3 191.8 412.9 193.9 410.7 196.9L401.9 209.1C400.7 211 401.7 213.6 403.9 214Z" fill="#E74DCB"/>
<path d="M425.7 131.8C428.959 131.8 431.6 129.158 431.6 125.9C431.6 122.642 428.959 120 425.7 120C422.442 120 419.8 122.642 419.8 125.9C419.8 129.158 422.442 131.8 425.7 131.8Z" fill="#E74DCB"/>
<path d="M438.1 114.5C443.402 114.5 447.7 110.202 447.7 104.9C447.7 99.5981 443.402 95.3 438.1 95.3C432.798 95.3 428.5 99.5981 428.5 104.9C428.5 110.202 432.798 114.5 438.1 114.5Z" fill="#E74DCB"/>
<path d="M447.092 173.202C449.319 170.179 448.494 165.789 445.248 163.398C442.002 161.007 437.565 161.52 435.338 164.543C433.11 167.567 433.936 171.956 437.182 174.347C440.428 176.739 444.865 176.226 447.092 173.202Z" fill="#FC974C"/>
<path d="M442.5 187.8C446.09 187.8 449 184.89 449 181.3C449 177.71 446.09 174.8 442.5 174.8C438.91 174.8 436 177.71 436 181.3C436 184.89 438.91 187.8 442.5 187.8Z" fill="#FC974C"/>
<path d="M441.3 162.6C444.779 162.6 447.6 159.779 447.6 156.3C447.6 152.821 444.779 150 441.3 150C437.821 150 435 152.821 435 156.3C435 159.779 437.821 162.6 441.3 162.6Z" fill="#FC974C"/>
<path d="M418.7 152.1L426.4 158C427.4 158.8 428.1 159.9 428.3 161.2L429.4 171.4C429.8 175 427.2 178.7 423.6 179.2C419.8 179.7 416.3 177 415.9 173.2L415 165" fill="#FC974C"/>
<path d="M417.2 177.6L414.6 163.3" stroke="#CE5B34" stroke-width="2" stroke-miterlimit="10" stroke-linecap="round" stroke-linejoin="round"/>
<path d="M415.9 95C418.441 95 420.5 92.9405 420.5 90.4C420.5 87.8595 418.441 85.8 415.9 85.8C413.36 85.8 411.3 87.8595 411.3 90.4C411.3 92.9405 413.36 95 415.9 95Z" fill="#E74DCB"/>
<path d="M328.7 258.7C328.7 258.7 351.8 254.3 367.7 269.2C378.8 279.6 338 196.2 338 196.2L328.7 258.7Z" fill="#CCDEFF"/>
<path d="M316.3 329.5C316.3 329.5 309.6 340.2 315.6 344.5C321.6 348.7 341.3 356.8 359.6 355.9C377.9 355 380.9 353.3 381.7 348.5C382.5 343.7 383 328 360.2 322.7C337.4 317.4 316.3 329.5 316.3 329.5Z" fill="#F7D33E"/>
<path d="M361.9 347C343.6 348.5 323.5 341.1 317.3 337C315.6 335.9 314.9 334.3 314.7 332.6C315.5 330.7 316.3 329.3 316.3 329.3C316.3 329.3 336.4 316.5 359.2 321.8C376 325.7 381.2 336 381.9 342.7C379.5 344.9 374.1 346 361.9 347Z" fill="#383838"/>
<path d="M345.2 328.2C345.2 328.2 349.4 320.8 359.5 320.7" stroke="white" stroke-width="3" stroke-miterlimit="10" stroke-linecap="round" stroke-linejoin="round"/>
<path d="M353.4 330.5C353.4 330.5 357.4 325.1 367.5 325" stroke="white" stroke-width="3" stroke-miterlimit="10" stroke-linecap="round" stroke-linejoin="round"/>
<path d="M304.5 325.8C310.3 335.1 304.2 367.3 264.1 363.7C251.3 362.6 249.6 355.3 250.2 349.6C251.4 338.1 269.8 325.6 280.5 323.8C306.2 319.6 304.5 325.8 304.5 325.8Z" fill="#F7D33E"/>
<path d="M301 321.3C306.8 327.9 301.6 352.7 266.4 352.2C231.2 351.8 267.2 317 283.4 318.7C299.6 320.5 301 321.3 301 321.3Z" fill="#383838"/>
<path d="M287.4 328.4C287.4 328.4 281.6 325.2 272.4 326.2" stroke="white" stroke-width="3" stroke-miterlimit="10" stroke-linecap="round" stroke-linejoin="round"/>
<path d="M283.1 336C283.1 336 278.2 333.6 269 334.6" stroke="white" stroke-width="3" stroke-miterlimit="10" stroke-linecap="round" stroke-linejoin="round"/>
<path d="M293 236.5C294 242.5 288.3 253.4 285.7 262.9C282.1 275.9 265.1 311.5 263.5 323.6C263.2 325.7 263 326.8 263.1 327.3C263.4 329.3 272.5 321.5 290.9 327.3C310.6 333.5 307.2 339.9 307.5 326.3C308.5 279.9 315.8 263 316.7 261.1C318.6 257.4 321.5 259.6 321.7 264.3C322.6 283 320.7 295.6 313.5 321.9C313 323.8 311.5 330 313.1 331.2C315.1 332.7 324.9 325.4 339.3 322.2C348.4 320.2 354.6 321.5 354.6 321.5C354.2 311.5 342.1 280.2 344 268.9C345.3 261.1 350.1 239.2 350.9 232.7C343.3 238 331.6 241.4 318.4 241.4C308.9 241.4 300 239.5 293 236.5Z" fill="#4380FF"/>
<path d="M350.9 224.6C350.6 220.1 349.9 217.1 349 216.4C342.9 211.4 317.1 212 294.2 224.7C294.2 224.7 294.1 224.7 294.1 224.8C292.4 225.8 291.4 227.7 291.6 229.7C291.7 230.5 292.3 233 292.9 236.6C299.9 239.6 308.8 241.4 318.4 241.4C331.6 241.4 343.3 238 350.9 232.7C351 232 351 231.5 351 231.2C351.1 228.7 351.1 226.5 350.9 224.6Z" fill="#FC974C"/>
<path d="M319.5 174.7C333.6 181.1 340 192.8 343.8 198.1C348.8 205.2 353.9 215.7 355.6 220.3C356.3 222.5 342.1 230.2 323.7 231.7C299.5 233.7 289.9 226.5 289.8 226.9C289.8 226.8 289.9 226.7 289.9 226.5C294.3 204.7 300.3 166.1 319.5 174.7Z" fill="#4CFFB3"/>
<path d="M313.1 179.3C313.1 179.3 324.3 251.7 314.6 283.3C313.5 286.9 290.4 288.9 267.8 275.6C266.2 274.7 294 226.2 295.2 181.8L313.1 179.3Z" fill="#CCDEFF"/>
<path d="M296.2 189.9C296.2 189.9 295 191.9 294.4 193.3" stroke="#2B895C" stroke-width="2" stroke-miterlimit="10" stroke-linecap="round" stroke-linejoin="round"/>
<path d="M322.5 202.2C324.4 200.8 325.4 198.2 325.4 195.3L325.3 190.6C325.3 190 325.8 189.9 326.1 190.4L328.2 194.6C329.5 197.3 331.7 199.1 333.9 199.5L337.5 200.1C337.9 200.2 338.1 200.9 337.8 201.2L334.9 203.3C333 204.7 332 207.3 332 210.2L332.1 214.9C332.1 215.5 331.6 215.6 331.3 215.1L329.2 210.9C327.9 208.2 325.7 206.4 323.5 206L319.9 205.4C319.5 205.3 319.3 204.6 319.6 204.3L322.5 202.2Z" fill="#0E45A8"/>
<path d="M297.7 182.2C272.1 187.2 255.5 199.5 255.1 205.3C254.8 210.8 269.1 235 270.2 236.8C269.6 235.1 275.2 230.9 282.8 227.4C290.5 223.8 297.4 222.3 298.2 224C298.2 224 286.6 207.1 280.8 206C280.8 206 286.5 201.3 296.2 200.7C305.8 200.1 297.7 182.2 297.7 182.2Z" fill="#CCDEFF"/>
<path d="M298 224.1C297.2 222.4 290.5 223.8 282.7 227.4C275.1 230.9 269.5 235.1 270.1 236.8V236.9C270.9 238.6 277.8 237 285.5 233.5C293.2 230 298.8 225.7 298 224.1Z" fill="#4380FF"/>
<path d="M306.4 232C304.7 227.6 298.2 223.6 298 223.4C295.9 222.6 289.5 224.3 282.4 227.5C280.8 228.2 279.3 229 277.9 229.8C277.3 231.9 276.9 233.4 278 235.7C278.6 236.9 280.9 239.9 283 239.9C283 239.9 273.4 243.8 279.3 248.9C287.2 255.8 296.7 253 300.2 249.6C305.8 244.1 308.5 237.5 306.4 232Z" fill="#FC974C"/>
<path d="M285.7 243.5C282.8 239 284.6 234.6 284.6 234.6" stroke="#CE5B34" stroke-width="2" stroke-miterlimit="10" stroke-linecap="round" stroke-linejoin="round"/>
<path d="M329 179.7C329 179.7 338 185.2 343.8 198.2C343.8 198.2 342.5 182.4 338 177.7" stroke="#97C1FF" stroke-width="2" stroke-miterlimit="10" stroke-linecap="round" stroke-linejoin="round"/>
<path d="M292.2 183.9L306.1 195.6L299.1 205.9L318.4 237.4C318.4 237.4 316.7 205.7 313.9 184.1" stroke="#97C1FF" stroke-width="2" stroke-miterlimit="10" stroke-linecap="round" stroke-linejoin="round"/>
<path d="M256.9 89.5C256.9 89.5 263.4 57.7 284.3 55.5C305.1 53.3 324.4 72.7 324.4 72.7C324.4 72.7 312 93.4 292.5 95.6C272.9 97.8 256.9 89.5 256.9 89.5Z" fill="#0E45A8"/>
<path d="M324.3 72.7C324.3 72.7 319.9 68.2 313 63.9C304.5 64.2 295.8 66.9 291.8 68.3C290 68.9 288.2 69.5 286.4 70C280.5 71.8 267.7 75.8 259.7 80.2C257.7 85.5 256.9 89.6 256.9 89.6C256.9 89.6 264.9 93.7 276.4 95.3C284.7 91.8 294 88.1 302 85.9C306.7 84.6 311.3 83.8 315.6 83.4C321.2 77.9 324.3 72.7 324.3 72.7Z" fill="#4380FF"/>
<path d="M293 77.9C328.2 70.9 345.1 78.3 363.9 124.3C382.6 170.3 326.9 182.6 314 184.2C301.1 185.8 254.1 194.1 251.2 143.7C248.3 93.3 266.9 83.1 293 77.9Z" fill="#FC974C"/>
<path d="M296.3 106.7C296.3 106.7 289.3 111.6 284.1 110C283.4 109.8 282.8 110.4 283.1 111.1C283.9 113 285.4 115.8 287.7 117.9C291.7 121.3 296.3 106.7 296.3 106.7Z" fill="#383838"/>
<path d="M319.7 108.1C327.5 116.1 329.7 129.5 321.3 137.7C312.9 145.9 300.9 145.1 293.1 137.1C285.3 129.1 284.8 117.1 293.1 108.9C301.6 100.7 312 100.1 319.7 108.1Z" fill="white"/>
<path d="M339.4 97.1C339.4 97.1 346.7 97.3 351.3 92.4C351.9 91.8 352.6 92.1 352.4 93C352 95.6 351.1 99.6 349.2 103.3C346 109.5 339.4 97.1 339.4 97.1Z" fill="#383838"/>
<path d="M329.7 117.4C332.5 128.2 339.9 137.8 346.9 136C353.9 134.2 356.5 124.2 353.7 113.5C350.9 102.8 343.9 95.2 336.9 97C329.9 98.8 326.9 106.6 329.7 117.4Z" fill="white"/>
<path d="M320.497 162.362C321.895 156.507 314.057 149.618 302.99 146.977C291.924 144.335 281.82 146.94 280.422 152.796C279.024 158.651 286.862 165.54 297.928 168.181C308.995 170.823 319.099 168.218 320.497 162.362Z" fill="#FC974C"/>
<path d="M345.1 152.6C343.7 156.9 339.7 163.2 335.3 164.4C332.5 165.2 327.6 157 327.6 157C327.6 157 321.5 168 315.9 169C312.2 169.7 305.5 167.8 302.4 160.5" stroke="#383838" stroke-width="3" stroke-miterlimit="10" stroke-linecap="round" stroke-linejoin="round"/>
<path d="M253.6 110C253.6 110 260.1 111.9 258.2 120.2C256.6 127.1 250.5 127.2 250.5 127.2" stroke="#F7D33E" stroke-width="6.9182" stroke-miterlimit="10" stroke-linecap="round"/>
<path d="M254.7 114.1C254.7 114.1 251.7 110.6 247.9 103.7C242.2 93.6 228.7 83.2 214.3 84C199.9 84.9 196.9 92.5 204.9 96C212.9 99.5 224.9 98.1 232 102.7C239 107.3 238.5 107.2 224.9 107.8C211.3 108.3 197.6 120.4 199.2 134.9C200.8 149.4 212.7 144.4 214.8 135.4C216.9 126.4 226.4 117.9 234.4 118.4C242 118.9 221.1 120.1 218.6 146.6C217.1 162.4 224.6 170.2 230.5 167.7C237.4 164.7 235.9 153.2 234.9 144.1C233.8 133.9 238.9 129.2 243 127.5C247.1 125.8 251 125.3 253.6 121.4C256.2 117.5 254.7 114.1 254.7 114.1Z" fill="#FC974C"/>
<path d="M287.4 72.6C289.2 72.1 291 71.5 292.8 70.9C299.7 68.5 321.3 62 330.7 71.4C342 82.7 341.5 86.6 341.5 86.6C341.5 86.6 323.2 83 303.1 88.6C283 94.2 254.7 108.5 254.7 108.5C254.7 108.5 248 92.5 256.4 85.7C262.9 80.3 280.2 74.7 287.4 72.6Z" fill="#0E45A8"/>
<path d="M309.8 66.8C308.1 67 306.5 67.3 304.9 67.6C305 67.6 312.1 68.2 317.9 85.9C318.9 85.8 320 85.7 321 85.7C317.4 74.2 313.1 69.1 309.8 66.8Z" fill="#4380FF"/>
<path d="M287.4 72.6C287.2 72.7 287 72.7 286.7 72.8C287.6 75.9 290.3 84.7 292.2 92C293.2 91.7 294.1 91.3 295 91C293 83.6 290.4 74.9 289.5 71.9C288.9 72.1 288.1 72.4 287.4 72.6Z" fill="#4380FF"/>
<path d="M270.8 78.3C270.7 78.3 270.7 78.3 270.8 78.3C269.3 78.8 268 79.3 266.7 79.9C265.4 83.7 264.4 90.7 267 102.5C267.9 102.1 268.8 101.7 269.8 101.2C266 84 270.7 78.4 270.8 78.3Z" fill="#4380FF"/>
<path d="M250.7 130.8L364.8 99.7C365.3 99.6 365.7 99.8 365.9 100.3C367.5 105 374.9 129.1 358.6 136.5C344.2 143.1 334.9 134.8 331.7 131.2C331.2 130.6 330.3 130.9 330.1 131.6C329 136.7 324.5 150.2 307.2 151.6C290.8 152.9 284.6 138.2 283.3 134.6C283.1 134.2 282.7 133.9 282.2 134L253.5 140.4C253.2 140.5 252.9 140.7 252.8 141L249.8 150.3C249.2 152.2 247.2 153.2 245.3 152.5L245.1 152.4C243.7 151.9 242.9 150.5 243.2 149L246.3 135.2C246.9 133.1 248.5 131.4 250.7 130.8Z" fill="#4380FF"/>
<path d="M304.7 116.1L294.6 148.9C297.9 150.8 302.1 152 307.2 151.6C307.3 151.6 307.3 151.6 307.4 151.6L319.5 112.1L304.7 116.1Z" fill="#CCDEFF"/>
<path d="M349.5 103.8L339.3 137C341.8 138.2 344.7 139 348.1 139L359.7 101.1L349.5 103.8Z" fill="#CCDEFF"/>
<path d="M271.9 205.9C271.9 205.9 277.5 204.2 280.8 205.9" stroke="#97C1FF" stroke-width="2" stroke-miterlimit="10" stroke-linecap="round" stroke-linejoin="round"/>
<path d="M108.1 391.2C108.1 391.2 66.2999 422.1 54.8999 438.3C54.8999 438.3 109.5 453 124.5 460.6L173.4 403.1L108.1 391.2Z" fill="#CCDEFF"/>
<path d="M133.8 442L139.4 436.3C140 435.7 140 434.8 139.4 434.2C138.8 433.6 137.9 433.6 137.3 434.2L130.9 440.7C129.8 440.3 128.6 440 127.5 439.7C127.4 437 127.1 431.4 127.1 431.4C127 430.1 125.1 430.1 125.1 431.4L124.7 439.3C122.3 439.2 120.1 439.5 117.9 440.3C116.5 438.2 112.6 432.3 112.6 432.3C111.8 431.2 110.1 432.2 110.8 433.4L115.3 441.4C113.6 442.3 112.1 443.6 110.6 445.1L101.6 441.5C100.8 441.2 100 441.6 99.6 442.3C99.3 443.1 99.7 443.9 100.4 444.3L108.5 447.6C107.3 449.2 106.2 451.1 105.1 453.2C106.7 453.7 108.2 454.2 109.6 454.7C113.5 446.2 120.8 440.2 130.9 444.4C132.6 445.1 134.3 446 135.9 447L138 444.5C136.7 443.6 135.3 442.7 133.8 442Z" fill="#FC974C"/>
<path d="M109.1 404L103.6 410.2C100.3 408.8 95.7 407.4 93.3 410.9C92.8 411.7 92.5 412.5 92.3 413.4C87.6 412.6 81.4 414 81.5 418.2C81.7 420.2 82.6 421.3 83.7 422.6C82.7 423.4 82 424.5 81.9 425.9C81.9 429.4 85.2 431.4 87.9 432.9C91.7 434.9 95.4 433.7 97.1 430.6C99.2 432.9 102.3 434.2 105.1 431.9C107.5 429.7 107.9 426.3 107.7 423.2C109.8 423.3 112 422.8 113.3 421C115.2 417.9 110.8 415 108.8 413.4C108 412.8 107.2 412.3 106.3 411.7L112.4 404.8C126.8 408.4 141.1 412 155.4 416.1C157.4 416.6 158.1 413.7 156.1 413.2C141.6 409.8 127.2 406.2 112.8 402.4C112.4 402 111.8 401.8 111.2 402C107 400.9 102.7 399.7 98.5 398.6C97.6 399.3 96.6 400 95.7 400.8C99.8 401.8 103.8 402.7 107.8 403.7C108.2 403.8 108.7 403.9 109.1 404ZM111.1 419.5C110.4 420.5 108.3 420.7 106.7 420.4C105.8 420.2 104.9 421 105.1 421.9C105.3 423.3 105.3 424.9 105.1 426.3C104.1 431.9 100.4 431 98.2 426.6C97.6 425.5 95.8 425.6 95.5 426.8C94.4 430.6 92.1 431.3 88.6 429C87.5 428.4 85.8 427.1 85.7 426.1C85.9 424.8 87.8 424.1 88.9 423.5C90.3 422.9 89.9 420.6 88.3 420.6C88.3 420.6 87.1 420.6 86.3 420.6C85.6 419.8 84.9 418.7 85 418.2C85 418.1 85 418.1 85 418C85 418 85 417.9 85.1 417.9C85.2 417.8 85.3 417.7 85.4 417.6C85.9 417.3 86.4 417.2 87 417C89.4 416.5 91.9 416.4 94 417.6C94.3 417.8 94.6 418 94.9 418.1C96.8 418.8 98.3 416.3 96.7 415C96.5 414.9 96.4 414.7 96.2 414.6C96.1 414.4 96.2 414 96.2 413.5C96.6 412.3 96.5 412.3 97.3 412C99.2 411.6 101.8 412.5 103.6 413.2C106 415.1 109.5 416.9 111.1 419.5Z" fill="#00C6B7"/>
<path d="M279.3 402.5C279.3 402.5 198.4 423.1 179 437C179 437 205 462.3 224.2 476.6C224.2 476.6 292.3 452.9 328.9 443.6C329 443.6 292 406.1 279.3 402.5Z" fill="#CCDEFF"/>
<path d="M222.9 444.8C226.9 443 228 438 227.4 434C226.3 428.4 230.1 423.7 236 423.7C240.1 423.6 244.8 426.4 243.8 431.1C243.4 434.2 241.4 437.3 242.2 440.3C243.6 443.3 250 443.5 253.1 443.7C255.1 443.7 257.3 443.2 257.5 441.9C257.9 440.1 256.4 438.3 255.2 436.8C254.3 435.6 254 433.6 254.9 432.3C257.3 429 261.5 428.4 265.2 428.1C272.6 427.6 280 429.7 285.6 435C287.9 437.3 284.6 440.7 282.2 438.5C279.6 435.3 275.9 433 271.6 431.9C267.4 430.8 260.1 430.2 256.9 433.6C256.5 434.2 256.6 434.7 257.1 435.5C257.7 436.3 258.7 437.4 259.2 438.4C261.8 443.4 258.1 446.5 253.1 446.6C247.2 446.8 237.4 445.3 239.3 437.3C239.7 434.6 242.1 430.5 240.8 428.4C238.1 424.7 230.2 425.7 229.4 430.8C229.2 431.9 229.2 432.8 229.3 433.9C229.7 438.6 228.1 444.3 223.2 446.2C222.5 446.4 222 445.1 222.9 444.8Z" fill="#0E45A8"/>
<path d="M51.3 347C51.3 347 104.8 359.3 117.6 367.6C117.6 367.6 100.4 382.7 87.7 391.2C87.7 391.2 42.7 377.1 18.5 371.5C18.5 371.5 43 349.2 51.3 347Z" fill="#CCDEFF"/>
<path d="M67.1999 368.6L76.4 370.1L84 380.5C86.0999 383.1 89.7999 379.9 87.5999 377.5L79.9 369.5L94.6999 367.5C96.6999 367.2 96.1999 364.2 94.1999 364.5C94.1999 364.5 81.6 366.9 77.9 367.6C77.7 367.5 77.5 367.4 77.3 367.4L69 366.1C70.2 363 70.0999 359.4 68.5999 356.4C68.4999 356.1 68.0999 355.9 67.6999 356C67.2999 356.1 67.0999 356.5 67.1999 356.9C68.1999 359.8 67.6999 363.2 66.0999 365.7L59.7 364.7C60.7 362.5 59.8 359.9 57.2 358.5C52.9 355.8 44.1 356.7 43.7 363C44.4 369.1 52.6999 369.8 57.0999 367.3C57.3999 367.2 57.6 367 57.9 366.8C58.1 367.2 58.5 367.5 59 367.6L62.2999 368.1C60.0999 369.7 55.7 371.8 47.9 371.1C47.1 371 46.2999 371.6 46.2999 372.5C46.2999 373.4 46.8 374.1 47.7 374.1C48.8 374.2 49.7999 374.2 50.7999 374.2C60.5 374.2 64.9999 369.9 66.0999 368.6C66.4999 368.6 66.8999 368.7 67.1999 368.6ZM47.0999 362.6C47.9999 358.4 57.8 358 58.5 362.6C58.1 367.5 47.4999 367.2 47.0999 362.6Z" fill="#0E45A8"/>
<path d="M215.7 433L223.1 444.9C223.5 445.5 222.9 446.3 222.2 446.1L209.3 442.3L215.7 433Z" fill="#D1BD9F"/>
<path d="M221.9 443C221.3 443.9 220.6 444.7 219.8 445.3L222.2 446C222.9 446.2 223.5 445.4 223.1 444.8L221.9 443Z" fill="#383838"/>
<path d="M146.5 315.9L141.7 286.4" stroke="#00C6B7" stroke-width="17.9758" stroke-miterlimit="10" stroke-linecap="round" stroke-linejoin="round"/>
<path d="M157.8 268.8C155.3 284 150.7 288.7 140.8 290.5C126.8 293 112.7 271.9 112.7 264.4C112.7 256.9 126.3 262.7 136.3 262.7C146.3 262.7 159 261.4 157.8 268.8Z" fill="#F7D33E"/>
<path d="M157.7 256.3C161.7 269.5 154.6 283.1 141.1 284C127.6 284.8 107.5 270.7 109.5 250C110.9 235 120.7 233.3 134.2 232.4C147.7 231.6 153.7 243 157.7 256.3Z" fill="#383838"/>
<path d="M83 332C91.9471 332 99.2 325.866 99.2 318.3C99.2 310.734 91.9471 304.6 83 304.6C74.053 304.6 66.8 310.734 66.8 318.3C66.8 325.866 74.053 332 83 332Z" fill="#FC974C"/>
<path d="M119.1 302.6C119.1 302.6 121.2 288.2 108 286.3C94.7999 284.4 81.9 287.4 81.3 306.2C80.7 324.9 70.6999 321.3 69.1999 320.4C67.6999 319.5 66.9 318.2 66.9 318.2C66.9 318.2 66.6 323.5 70.8 328.7C75 333.9 104.4 310.5 104.4 310.5L119.1 302.6Z" fill="#383838"/>
<path d="M119.5 316C119.5 316 123.9 290.9 105.7 292.1C87.5001 293.3 86.2001 304.4 84.5001 314.5C82.8001 324.6 76.2001 328.5 69.1001 326.3C69.1001 326.3 70.7001 340.6 94.8001 337.9C118.9 335.2 119.5 316 119.5 316Z" fill="#F7D33E"/>
<path d="M129.3 338.3L110.7 314.8" stroke="#00C6B7" stroke-width="17.9758" stroke-miterlimit="10" stroke-linecap="round" stroke-linejoin="round"/>
<path d="M102.7 332.7C102.7 332.7 96.1 336 89.5 330.8" stroke="white" stroke-width="3" stroke-miterlimit="10" stroke-linecap="round" stroke-linejoin="round"/>
<path d="M138.9 321.8L134.5 307.1C134 305.3 134.2 303.3 135.1 301.7C137.9 296.9 144.7 288.4 154.4 296.7C155.2 297.3 155.8 298.1 156.2 299L162.7 312.8L138.9 321.8Z" fill="#383838"/>
<path d="M127.6 368.6C127.6 368.6 115.7 357.2 117 343.4C118.3 329.6 123.6 310.5 155.5 309.5C184.6 308.6 179.1 353.5 179.1 353.5L127.6 368.6Z" fill="#383838"/>
<path d="M143.5 389.4C143.5 389.4 112.6 369.1 128.8 348C144.9 326.9 187.5 353.2 187.5 353.2L143.5 389.4Z" fill="#E74DCB"/>
<path d="M190.2 330.9C193.6 345.9 183.1 361.2 166.6 365C150.1 368.8 134 359.6 130.5 344.6C127.1 329.6 142.9 322.3 159.4 318.5C175.8 314.7 186.7 315.9 190.2 330.9Z" fill="#E74DCB"/>
<path d="M162.2 369.7C162.2 369.7 140.2 371 130.6 347" stroke="#B23FA7" stroke-width="2" stroke-miterlimit="10" stroke-linecap="round" stroke-linejoin="round"/>
<path d="M173.7 330.1C175.1 336.4 168.6 346.5 157.9 348.9C147.2 351.4 136.3 345.3 134.9 339C133.5 332.7 145.1 325.9 156.2 324.6C167.2 323.3 172.3 323.8 173.7 330.1Z" fill="#383838"/>
<path d="M254 355.5C254 355.5 286.8 361 292.3 366.1C297.8 371.2 300.8 394.1 285.8 407.1C270.8 420.1 256.6 400.6 256.8 393.6C256.9 386.6 265.7 380.4 265.7 380.4L251.5 375L254 355.5Z" fill="#E74DCB"/>
<path d="M163.6 368.8C163.6 368.8 132.6 385.9 131.8 398.9C131 411.9 158.6 437.9 169.3 429.9C180 421.9 184.8 410 180.7 403.3C176.6 396.6 167.6 393.3 167.6 393.3C167.6 393.3 183.8 396.7 191.1 389.1C197.1 383 163.6 368.8 163.6 368.8Z" fill="#E74DCB"/>
<path d="M140.2 385.6C140.2 385.8 143.3 380.9 151.3 378" stroke="#B23FA7" stroke-width="2" stroke-miterlimit="10" stroke-linecap="round" stroke-linejoin="round"/>
<path d="M224.8 294.6C192.4 287.2 176.6 294.1 158.5 337.6C140.4 381.1 191.6 395.3 203.7 395.5C231.5 396.1 262.1 391.4 262.7 350.7C263.3 315.1 252 300.8 224.8 294.6Z" fill="#00C6B7"/>
<path d="M155.3 348.4C155.3 348.4 155.2 341.6 150.3 344.1C142 348.4 137.5 335.3 144.1 331.2C150.7 327.1 156.5 332.8 158.5 327.1C160.4 321.4 153.3 322.5 144.6 322.8C135.8 323.1 131.9 313.7 137.3 309C142.7 304.3 148.7 302.7 158.1 305.6C167.5 308.5 173.1 307.4 174 302.6C174.8 298.1 171.8 295.7 164.2 293.1C157.1 290.6 153.6 285.2 156.6 277.6C159 271.5 169.3 270.6 179.4 277.6C185.4 281.7 187.7 291.7 194.1 290.3C200.4 288.9 204 275.6 196.2 271.5C188.4 267.4 183.5 261.8 189.5 255.1C195.6 248.3 211.7 252.3 217 265.4C222.3 278.6 213.3 288.6 230.1 291.2C237 292.3 245.3 276.1 260.9 274.7C276 273.4 279.1 280.3 277.4 286.5C275.7 292.7 270.2 292.4 260.3 294.1C250.4 295.9 248 301.9 254.9 300.9C261.8 300 271.2 296.5 278 303.4C286.1 311.5 283.6 321.5 276.5 322.6C269.4 323.7 267.2 315.7 262 313.8C257 312 253.5 313.3 256.6 317.9C260.3 323.4 155.3 348.4 155.3 348.4Z" fill="#00C6B7"/>
<path d="M189.9 327.7C179.5 333.7 174.1 348.1 180.1 358.5C186.1 368.9 197.9 371.8 208.3 365.8C218.7 359.8 220.5 343 216.7 335.2C211.4 324.5 200.2 321.6 189.9 327.7Z" fill="white"/>
<path d="M201.5 342.3C195 341 193.3 347.8 192.9 350.2C192.8 350.6 193.2 351 193.8 351C196.5 351.1 198.8 353.1 198.8 355.5C198.8 357.1 197.5 358.6 195.7 359.1C194.6 359.4 193.4 359.4 192.4 359.1C191.9 359 191.4 359.2 191.4 359.7C191 364.2 191.5 366.7 192.6 368.2C195.8 369 199.2 369 202.5 368.1C204 366.2 205.3 362.9 206.2 357.4C208.3 345.2 205.4 343.1 201.5 342.3Z" fill="#383838"/>
<path d="M193.77 372.57C196.311 368.17 191.895 360.864 183.908 356.253C175.921 351.641 167.386 351.47 164.846 355.87C162.305 360.27 166.721 367.576 174.708 372.187C182.695 376.799 191.229 376.97 193.77 372.57Z" fill="#00C6B7"/>
<path d="M232.7 337C223.4 353.8 225.4 362.3 230.6 367.7C233.6 370.8 245.4 374.8 253.7 366.8C260.6 360.1 263.5 343.9 255.1 333.9C247.7 325.1 236.2 330.8 232.7 337Z" fill="white"/>
<path d="M178.2 373.5C178.2 373.5 166.5 382.2 171.7 388.1C177.9 395.1 191.2 382.4 191.2 382.4C191.2 382.4 184.7 380.6 182.8 379.2C180.9 377.8 178.2 373.5 178.2 373.5Z" fill="#E52E86"/>
<path d="M219.5 382.8C219.5 382.8 206.3 390.9 202.4 387.3C199.3 384.4 202.3 379.8 202.3 379.8C202.3 379.8 191.6 385.8 185.8 381.4C180 377 178.8 369.6 178.8 369.6" stroke="#383838" stroke-width="3" stroke-miterlimit="10" stroke-linecap="round" stroke-linejoin="round"/>
<path d="M244 347.2C237.9 346 236.2 352.4 235.8 354.7C235.7 355.1 236.1 355.4 236.6 355.5C239.2 355.6 241.4 357.5 241.3 359.8C241.3 361.3 240.1 362.7 238.3 363.2C237.2 363.5 236.1 363.5 235.1 363.2C234.6 363.1 234.1 363.3 234.1 363.8C233.8 366.7 234 368.8 234.4 370.2C237.3 371.3 241.2 372 245.1 371.2C246.3 369.3 247.4 366.3 248.2 361.7C250.6 349.9 247.8 347.9 244 347.2Z" fill="#383838"/>
<path d="M120.5 343.8L110.7 332.7C109.2 331 108.5 328.7 108.7 326.4C109.4 320.8 112.2 311.3 123.8 314.3C124.9 314.6 126 315.2 126.8 315.9L138.3 325.6L120.5 343.8Z" fill="#383838"/>
<path d="M91.3001 306.4C90.4001 306.6 89.4001 307.3 89.1001 308.8C88.9001 309.9 88.7001 311.1 88.5001 312.2C88.3001 313.4 88.1001 314.7 87.9001 315.9C87.8001 316.2 87.8001 316.5 87.7001 316.8C87.4001 318.3 87.0001 320.1 89.3001 320.9C89.6001 321 90.0001 321.1 90.4001 321.1C92.9001 321.1 96.5001 319.2 97.9001 317.4C98.7001 316.4 98.7001 315.4 98.6001 314.8C98.3001 313.5 93.3001 306 91.3001 306.4Z" fill="#383838"/>
<path d="M157.8 250.7C161.6 263.9 154.9 277.5 142.2 278.4C129.4 279.2 114.7 265.6 111 252.3C107.2 239.1 115.8 231.3 128.6 230.4C141.2 229.6 154 237.4 157.8 250.7Z" fill="#FC974C"/>
<path d="M118.6 245.6C124.6 242.3 134.5 238.6 149.7 237.7C148.6 236.7 147.5 235.8 146.3 235C126.6 236.6 115.7 243 110.1 247.9C110.2 249 110.4 250.2 110.7 251.4C112.4 249.8 115 247.7 118.6 245.6Z" fill="#383838"/>
<path d="M156.7 247.7C133.5 248.3 120.8 255.1 114.5 260.4C115 261.2 115.6 262.1 116.1 262.9C122 257.9 134.3 251 157.7 250.6C157.5 249.6 157.1 248.6 156.7 247.7Z" fill="#383838"/>
<path d="M123 270.4C123.7 271 124.5 271.6 125.2 272.2C126.3 271.4 127.7 270.6 129.2 269.8C134.8 266.9 144.1 263.9 158 264.5C158.2 263.6 158.4 262.7 158.6 261.8C140.2 261 129.2 266 123 270.4Z" fill="#383838"/>
<path d="M83.6001 309.9L67.6001 314C67.2001 315 67.0001 316.2 66.9001 317.3L84.3001 312.8L83.6001 309.9Z" fill="#383838"/>
<path d="M158.3 400.5L210.8 436.6" stroke="#F7D33E" stroke-width="12" stroke-miterlimit="10" stroke-linecap="round"/>
<path d="M208.5 431.4C211 423 201.2 409.1 191.3 404.4C185 401.4 176.2 404.2 171.5 414.2C166.8 424.1 169.8 432.4 181.5 439.4C191.2 445.1 205.4 442 208.5 431.4Z" fill="#00C6B7"/>
<path d="M188.5 412.9L194 416.7L199.3 421.9C201.8 424.3 205.9 424.2 208.2 421.5C210.3 419 210 415.3 207.6 413L201 406.6C200.5 406.1 199.9 405.7 199.2 405.4C199.2 405.4 193.2 401.3 186.7 403.4" fill="#00C6B7"/>
<path d="M188.5 412.9L194 416.7L199.3 421.9C201.8 424.3 204.5 425.4 206.8 422.7" fill="#00C6B7"/>
<path d="M188.5 412.9L194 416.7L199.3 421.9C201.8 424.3 204.5 425.4 206.8 422.7" stroke="#009186" stroke-width="2" stroke-miterlimit="10" stroke-linecap="round" stroke-linejoin="round"/>
<path d="M188.6 430.6C188.6 430.6 197 429.1 196.5 420.2" stroke="#009186" stroke-width="2" stroke-miterlimit="10" stroke-linecap="round" stroke-linejoin="round"/>
<path d="M195.3 434.7C195.3 434.7 201.7 433 203.1 424.9" stroke="#009186" stroke-width="2" stroke-miterlimit="10" stroke-linecap="round" stroke-linejoin="round"/>
<path d="M158.3 400.5L182.6 417.2" stroke="#F7D33E" stroke-width="12" stroke-miterlimit="10" stroke-linecap="round"/>
<path d="M158.1 406.3C161.414 406.3 164.1 403.614 164.1 400.3C164.1 396.986 161.414 394.3 158.1 394.3C154.786 394.3 152.1 396.986 152.1 400.3C152.1 403.614 154.786 406.3 158.1 406.3Z" fill="#D1BD9F"/>
<path d="M157.8 402.5C158.905 402.5 159.8 401.605 159.8 400.5C159.8 399.395 158.905 398.5 157.8 398.5C156.695 398.5 155.8 399.395 155.8 400.5C155.8 401.605 156.695 402.5 157.8 402.5Z" fill="#383838"/>
<path d="M274.1 395.5C262 387.4 254.7 396 250.7 400.5C246.7 405 244.2 412 248.4 415.3C252.5 418.6 257.5 411.5 257.5 411.5C257.5 411.5 254.9 418.9 260.2 421.2C265.5 423.5 268.8 414.9 268.8 414.9C268.8 414.9 267.6 423.5 275.4 423.5C283.2 423.6 290.4 406.4 274.1 395.5Z" fill="#00C6B7"/>
<path d="M266 380.6C266 380.8 270 375.4 277.2 377.9" stroke="#B23FA7" stroke-width="2" stroke-miterlimit="10" stroke-linecap="round" stroke-linejoin="round"/>
<path d="M160.4 390.2C160.4 390.2 163.6 390 167.6 393.4" stroke="#B23FA7" stroke-width="2" stroke-miterlimit="10" stroke-linecap="round" stroke-linejoin="round"/>
<path d="M335.7 377.7L312.8 385.4C309.6 386.5 308.4 390.3 310.4 393L338.3 430C340.7 433.2 344.9 434.4 348.6 432.9L372.4 423.6C377.4 421.6 378.8 415.1 374.9 411.3L342.5 379.2C340.7 377.6 338.1 376.9 335.7 377.7Z" fill="#383838"/>
<path d="M335.9 380.8L317.8 386.9C315.5 387.7 314.6 390.6 316.1 392.5L340.6 424.6C342.3 426.9 345.4 427.7 348 426.6L370 417.8C372.4 416.8 373 413.7 371.2 411.9L341.4 382C340 380.7 337.8 380.2 335.9 380.8Z" fill="#4CFFB3"/>
<path d="M364.3 420.2L361.3 418.8C360.9 418.6 360.4 418.6 360 418.8L355 420.7C354.5 420.9 354.1 421.3 354 421.8L353.2 424.7L364.3 420.2Z" fill="#383838"/>
<path d="M343.9 409.4L342.4 414.5C342.3 414.8 342 414.8 341.8 414.5L339.6 409.9L343.9 409.4Z" fill="#383838"/>
<path d="M339 387.7L341.8 409.7" stroke="#E74DCB" stroke-width="4.1752" stroke-miterlimit="10"/>
<path d="M339.7 405C343.732 405 347 402.179 347 398.7C347 395.221 343.732 392.4 339.7 392.4C335.668 392.4 332.4 395.221 332.4 398.7C332.4 402.179 335.668 405 339.7 405Z" fill="#FC974C"/>
<path d="M336.8 399.8L339.2 394.3C335.2 392.6 331 389.8 330.4 388.5C330.6 387.3 332.3 384.5 334.7 381.2L325.8 384.2C325 385.8 324.5 387.3 324.5 388.5C324.2 393.6 332.1 397.8 336.8 399.8Z" fill="#FC974C"/>
<path d="M355.2 406.6C353.4 407.2 352.4 408.9 351.6 410.4C349.9 413.5 346.2 416.2 342.8 414.1L342.2 414.9C345.1 417.1 349.3 415.9 351.6 413.3C352.8 412.2 353.5 410.8 354.5 409.6C357.8 406.4 362.1 410.8 363.1 414.2C363.8 416.2 364 418.3 363.9 420.4L367.5 419C367.2 415.2 365.8 411.4 363 408.7C361 406.8 357.9 405.5 355.2 406.6Z" fill="#4380FF"/>
</svg>